<svg width="25" height="28" viewBox="0 0 25 28" fill="none" xmlns="http://www.w3.org/2000/svg">
<path d="M21.8956 5.39159C21.876 5.25021 21.751 5.17175 21.6473 5.16321C21.5443 5.15466 19.5277 5.12436 19.5277 5.12436C19.5277 5.12436 17.8411 3.50548 17.6745 3.3408C17.5079 3.17611 17.1825 3.22583 17.056 3.26312C17.0544 3.26389 16.7392 3.36022 16.2087 3.52257C16.1199 3.23826 15.9895 2.88869 15.8032 2.53757C15.2028 1.40498 14.3233 0.806052 13.2608 0.804499C13.2592 0.804499 13.2584 0.804499 13.2568 0.804499C13.183 0.804499 13.1099 0.81149 13.036 0.817704C13.0046 0.780417 12.9731 0.743907 12.9401 0.708173C12.4772 0.21878 11.8838 -0.0197018 11.1726 0.00127219C9.80038 0.0401129 8.43367 1.01968 7.32553 2.75974C6.5459 3.984 5.95253 5.52209 5.78435 6.71295C4.20858 7.19535 3.10673 7.53249 3.08237 7.54026C2.28702 7.78728 2.26187 7.81137 2.15813 8.55245C2.08111 9.11253 0 25.0186 0 25.0186L17.4403 28L24.9992 26.1426C24.9992 26.1426 21.9153 5.53297 21.8956 5.39159ZM15.3356 3.7898C14.934 3.91253 14.4774 4.05236 13.9822 4.20384C13.972 3.51714 13.8895 2.56165 13.5657 1.7359C14.607 1.93088 15.1195 3.09532 15.3356 3.7898ZM13.0698 4.48349C12.1558 4.76315 11.1584 5.06843 10.158 5.3745C10.4393 4.30949 10.973 3.24913 11.6284 2.55388C11.8721 2.29521 12.2131 2.00701 12.6171 1.84232C12.9967 2.62535 13.0792 3.73387 13.0698 4.48349ZM11.2001 0.903931C11.5223 0.896939 11.7935 0.966853 12.0253 1.11755C11.6544 1.30787 11.296 1.58131 10.9596 1.93787C10.088 2.86228 9.42 4.29706 9.15357 5.68134C8.32286 5.93536 7.51022 6.18472 6.76203 6.4131C7.23436 4.23414 9.08205 0.964522 11.2001 0.903931Z" fill="#95BF47"/>
<path d="M21.6481 5.16418C21.5451 5.15564 19.5284 5.12534 19.5284 5.12534C19.5284 5.12534 17.8419 3.50646 17.6752 3.34178C17.6132 3.28041 17.5291 3.24856 17.441 3.23535L17.4418 27.9994L25 26.1428C25 26.1428 21.916 5.53395 21.8964 5.39257C21.8768 5.25119 21.751 5.17273 21.6481 5.16418Z" fill="#5E8E3E"/>
<path d="M13.2513 9.00549L12.3735 12.2518C12.3735 12.2518 11.3942 11.8113 10.2334 11.8836C8.53112 11.99 8.51304 13.0511 8.53033 13.3176C8.62307 14.7695 12.4874 15.0864 12.7043 18.4873C12.8749 21.1626 11.2685 22.9928 8.95394 23.1373C6.17573 23.3105 4.64633 21.6909 4.64633 21.6909L5.23498 19.2159C5.23498 19.2159 6.77459 20.3641 8.00691 20.2872C8.81169 20.2367 9.09934 19.5896 9.07026 19.132C8.94922 17.2382 5.80242 17.35 5.60358 14.2381C5.43618 11.6195 7.1762 8.96588 11.0154 8.72662C12.4945 8.63262 13.2513 9.00549 13.2513 9.00549Z" fill="white"/>
</svg>
